<svg width="21" height="20" viewBox="0 0 21 20" fill="none" xmlns="http://www.w3.org/2000/svg">
<g clip-path="url(#clip0_66_6803)">
<path d="M2.32031 9.95318C2.32031 14.5152 6.01858 18.2135 10.5806 18.2135C11.9492 18.2135 13.0587 17.104 13.0587 15.7354V15.3224C13.0587 14.9387 13.0587 14.7469 13.0799 14.5859C13.2263 13.4739 14.1013 12.5989 15.2133 12.4525C15.3744 12.4313 15.5662 12.4313 15.9498 12.4313H16.3628C17.7314 12.4313 18.8409 11.3218 18.8409 9.95318C18.8409 5.39114 15.1427 1.69287 10.5806 1.69287C6.01858 1.69287 2.32031 5.39114 2.32031 9.95318Z" stroke="white" stroke-width="1.5" stroke-linecap="round" stroke-linejoin="round"/>
<path d="M6.45047 10.7792C6.90667 10.7792 7.2765 10.4094 7.2765 9.95318C7.2765 9.49697 6.90667 9.12715 6.45047 9.12715C5.99426 9.12715 5.62443 9.49697 5.62443 9.95318C5.62443 10.4094 5.99426 10.7792 6.45047 10.7792Z" stroke="white" stroke-width="1.5" stroke-linecap="round" stroke-linejoin="round"/>
<path d="M13.8847 7.47508C14.3409 7.47508 14.7108 7.10526 14.7108 6.64905C14.7108 6.19285 14.3409 5.82302 13.8847 5.82302C13.4285 5.82302 13.0587 6.19285 13.0587 6.64905C13.0587 7.10526 13.4285 7.47508 13.8847 7.47508Z" stroke="white" stroke-width="1.5" stroke-linecap="round" stroke-linejoin="round"/>
<path d="M8.92856 6.64905C9.38476 6.64905 9.75459 6.27923 9.75459 5.82302C9.75459 5.36682 9.38476 4.99699 8.92856 4.99699C8.47235 4.99699 8.10253 5.36682 8.10253 5.82302C8.10253 6.27923 8.47235 6.64905 8.92856 6.64905Z" stroke="white" stroke-width="1.5" stroke-linecap="round" stroke-linejoin="round"/>
</g>
<defs>
<clipPath id="clip0_66_6803">
<rect width="19.8247" height="19.8247" fill="white" transform="translate(0.667969 0.0410156)"/>
</clipPath>
</defs>
</svg>
