<svg width="19" height="18" viewBox="0 0 19 18" fill="none" xmlns="http://www.w3.org/2000/svg">
<path d="M9.58061 15.9515C10.4575 16.7363 11.6154 17.2135 12.8847 17.2135C15.622 17.2135 17.8409 14.9945 17.8409 12.2573C17.8409 9.97173 16.2938 8.04751 14.1897 7.47473M4.97151 7.47472C2.86741 8.0475 1.32031 9.97172 1.32031 12.2573C1.32031 14.9945 3.53927 17.2135 6.2765 17.2135C9.01372 17.2135 11.2327 14.9945 11.2327 12.2573C11.2327 11.6126 11.1096 10.9966 10.8856 10.4316M14.5368 5.64905C14.5368 8.38628 12.3178 10.6052 9.58062 10.6052C6.84339 10.6052 4.62443 8.38628 4.62443 5.64905C4.62443 2.91183 6.84339 0.692871 9.58062 0.692871C12.3178 0.692871 14.5368 2.91183 14.5368 5.64905Z" stroke="white" stroke-width="1.23905" stroke-linecap="round" stroke-linejoin="round"/>
</svg>
