<svg width="56" height="56" viewBox="0 0 56 56" fill="none" xmlns="http://www.w3.org/2000/svg">
<g clip-path="url(#clip0_25_1067)">
<mask id="mask0_25_1067" style="mask-type:luminance" maskUnits="userSpaceOnUse" x="0" y="0" width="56" height="56">
<path d="M0 0H56V56H0V0Z" fill="white"/>
</mask>
<g mask="url(#mask0_25_1067)">
<path d="M-2.5 -2.222H57.5V57.778H-2.5V-2.222Z" fill="#D9D9D9"/>
<path d="M3.898 3.081C4.319 5.741 6.117 7.963 8.57 9.004C19.153 13.489 30.284 4.129 17.152 0.149C14.782 -0.57 3.064 -2.176 3.898 3.08V3.081ZM-2.096 22.307C-4.147 23.824 -4.058 24.715 -1.115 27.391C1.918 30.246 5.754 32.208 9.945 33.011C13.87 33.724 15.565 35.508 16.457 39.701C17.617 45.321 19.401 47.461 26.804 52.188C33.672 56.648 34.208 56.827 35.367 55.221C35.992 54.329 36.527 53.348 36.527 53.081C36.527 52.723 33.494 50.583 29.837 48.264C22.701 43.714 21.898 42.822 21.007 37.827C20.382 34.17 17.617 30.246 15.297 29.532C14.495 29.265 12.087 28.64 9.946 28.105C7.806 27.57 4.594 25.785 2.81 24.091C-0.0440016 21.593 -0.758001 21.326 -2.096 22.307Z" fill="#ACDBF6"/>
<path d="M48.897 1.104L43.598 -2.058L41.345 1.554L48.897 6.388V1.104ZM5.425 16.862L21.77 16.292L23.799 17.776L18.726 26.226L5.199 20.516L5.425 16.862ZM3.311 53.75C4.691 54.542 6.197 54.923 7.297 54.786C8.121 54.684 9.037 54.41 9.531 53.734C9.848 53.298 9.991 52.747 9.93 52.134C9.875 51.594 9.619 50.121 8.214 49.914C8.01381 49.8884 7.81118 49.8884 7.611 49.914C6.395 50.034 5.305 50.293 4.231 50.556C3.262 50.793 2.351 51.104 1.955 51.775C1.618 52.348 2.15 53.083 3.311 53.75ZM54.508 39.923C56.09 43.408 56.444 46.839 55.53 49.028C54.846 50.666 53.63 52.364 51.48 52.873C50.095 53.201 48.465 53.075 46.76 52.473C45.257 51.944 41.21 50.277 41.299 47.191C41.399 43.631 45.676 36.15 49.566 35.577C51.35 35.315 53.177 36.99 54.508 39.923Z" fill="#B0E09E"/>
<path d="M29.522 1.549L22.333 13.665M22.333 13.665L1.818 13.437M22.333 13.665L56.664 35.284M56.6 22.572L28.166 4.592M57.84 14.008L39.692 24.398M46.681 28.624L34.73 49.292M39.128 24.054L27.181 44.722M27.969 16.862L20.53 29.312M20.53 29.312L25.377 43.012L47.459 57.092M20.53 29.312L1.593 21.886L1.963 12.761M26.073 43.36L-3.471 50.046" stroke="white" stroke-width="1.356" stroke-miterlimit="10"/>
<path d="M36.692 0.880001L43.542 5.266L42.45 7.018L35.599 2.633L36.692 0.880001ZM-0.363998 41.99L6.99 40.7L7.774 45.293L0.420002 46.582L-0.363998 41.989V41.99ZM35.117 3.55L41.967 7.935L40.874 9.687L34.024 5.301L35.117 3.55ZM52.648 10.882L45.244 6.142L42.404 10.695L49.808 15.435L52.648 10.882ZM28.741 7.776L35.221 11.924L32.291 16.624L25.867 12.491L28.741 7.776ZM28.96 21.296L23.829 29.643L26.589 37.643L27.482 38.225L35.139 25.194L28.96 21.296ZM43.56 29.684L39.92 27.183L38.41 29.727L42.05 32.229L43.56 29.684ZM37.95 30.588L41.588 33.09L40.078 35.634L36.438 33.134L37.95 30.588ZM39.617 36.496L35.978 33.994L34.468 36.539L38.107 39.04L39.617 36.496ZM34.007 37.4L37.646 39.901L36.136 42.446L32.496 39.944L34.007 37.4ZM35.675 43.307L32.035 40.806L30.525 43.35L34.165 45.852L35.675 43.307ZM49.979 21.342L59.5 27.437L56.66 31.99L47.139 25.895L49.979 21.342ZM8.578 35.306L1.973 36.463L2.636 40.348L9.242 39.191L8.578 35.306ZM11.658 52.532L17.264 51.55L18.064 56.26L12.459 57.242L11.658 52.532ZM21.174 52.902L18.95 53.292L19.791 58.222L22.016 57.832L21.174 52.902ZM11.074 48.7L16.679 47.718L17.11 50.242L11.505 51.224L11.074 48.7ZM13.693 39.53L7.933 40.54L8.455 43.597L14.215 42.588L13.693 39.53ZM33.654 17.483L39.819 21.448L45.198 18.285L36.586 12.784L33.654 17.483Z" fill="#F3F0EE"/>
</g>
</g>
<defs>
<clipPath id="clip0_25_1067">
<rect width="56" height="56" fill="white"/>
</clipPath>
</defs>
</svg>
