<svg width="21" height="48" viewBox="0 0 21 48" fill="none" xmlns="http://www.w3.org/2000/svg">
<path d="M10.5806 30.9515C11.4575 31.7363 12.6154 32.2135 13.8847 32.2135C16.622 32.2135 18.8409 29.9945 18.8409 27.2573C18.8409 24.9717 17.2938 23.0475 15.1897 22.4747M5.97151 22.4747C3.86741 23.0475 2.32031 24.9717 2.32031 27.2573C2.32031 29.9945 4.53927 32.2135 7.2765 32.2135C10.0137 32.2135 12.2327 29.9945 12.2327 27.2573C12.2327 26.6126 12.1096 25.9966 11.8856 25.4316M15.5368 20.6491C15.5368 23.3863 13.3178 25.6052 10.5806 25.6052C7.84339 25.6052 5.62443 23.3863 5.62443 20.6491C5.62443 17.9118 7.84339 15.6929 10.5806 15.6929C13.3178 15.6929 15.5368 17.9118 15.5368 20.6491Z" stroke="white" stroke-width="1.23905" stroke-linecap="round" stroke-linejoin="round"/>
</svg>
